<svg width="1em" height="1em" viewBox="0 0 32 32" fill="none" xmlns="http://www.w3.org/2000/svg">
<path d="M17.0141 23.2694L18.8886 23.1103C18.8886 23.1103 20.3653 23.0306 20.3653 21.1359C20.3653 19.2411 19.3876 17.5257 17.7519 17.5257H15.9572L17.0141 23.2694ZM15.4386 5.32017C21.2031 5.24038 22.519 9.74789 22.519 12.7597C22.519 15.7714 20.1652 16.1918 20.1652 16.1918C22.3393 16.5335 24.0738 18.4635 24.0738 22.3321C24.0738 26.2019 20.3254 26.4407 20.3254 26.4407L14.0232 26.8801L10.572 11.8814C10.572 10.7447 11.3295 9.82712 12.8264 9.82712C14.3215 9.82712 14.6205 11.1835 14.6205 11.1835L15.2993 14.2751H17.2738C17.4929 14.2751 19.228 13.8559 18.6296 11.2628C18.0312 8.67077 16.0173 8.63084 16.0173 8.63084H11.23C9.63532 8.63084 8.85651 7.25477 8.85651 7.25477L7.67993 5.12012L15.4386 5.32017Z" fill="url(#paint0_linear_8103_8807)"></path>
<defs><linearGradient id="paint0_linear_8103_8807" x1="5.11993" y1="5.12012" x2="26.8799" y2="26.8801" gradientUnits="userSpaceOnUse"><stop stop-color="#CC008C"></stop><stop offset="0.22" stop-color="#F230A4"></stop><stop offset="0.485" stop-color="#FF552A"></stop><stop offset="0.795" stop-color="#FFBB28"></stop><stop offset="1" stop-color="#FF8F43"></stop></linearGradient></defs></svg>