<svg width="1em" height="1em" viewBox="0 0 32 32" fill="none" xmlns="http://www.w3.org/2000/svg"><path d="M22.5749 5.12012C22.4497 5.12012 22.1208 5.33844 21.7659 5.5043C21.5341 5.61261 21.1443 5.77057 20.6946 5.90371C20.1401 6.06787 19.647 6.16942 18.7337 6.16942C17.9772 6.16942 17.0712 6.03571 15.9632 5.75477C15.4642 5.62648 14.9607 5.51678 14.4535 5.42588C13.9244 5.33167 13.4313 5.27977 12.9749 5.27977C12.2929 5.27977 11.6385 5.3548 11.014 5.50542C10.3503 5.66414 9.71145 5.91278 9.1151 6.24445C9.00963 6.30368 8.95996 6.40018 8.95996 6.52485V10.0106C8.95996 10.1607 9.02825 10.229 9.14671 10.229C9.22338 10.229 9.28547 10.1878 9.31254 10.1714C9.74019 9.90514 10.35 9.64792 11.014 9.48204C11.6548 9.31807 12.3135 9.23436 12.9749 9.23269C13.4415 9.23269 13.9244 9.27896 14.4535 9.3726C14.9827 9.46623 15.4831 9.58469 15.9632 9.69925C17.2116 9.99711 18.1306 10.1348 18.7337 10.1348C19.3689 10.1348 20.0092 10.031 20.6946 9.82392C21.0618 9.71416 21.4201 9.57605 21.7659 9.41093C22.0452 9.27672 22.3104 9.12492 22.5614 8.95231C22.6658 8.88069 22.7171 8.8028 22.7171 8.67192V5.29331C22.7171 5.18273 22.6793 5.12012 22.5749 5.12012ZM22.4683 12.9983H13.7845C12.3318 12.9983 11.1646 13.4401 10.2828 14.3212C9.40054 15.2036 8.95996 16.3707 8.95996 17.8228V26.6308C8.95996 26.7977 9.0429 26.8801 9.2093 26.8801H12.7577C12.9236 26.8801 13.0071 26.7977 13.0071 26.6308V18.6014C13.0071 18.1032 13.1521 17.7094 13.4426 17.4184C13.7331 17.1284 14.1275 16.9828 14.6256 16.9828H22.4688C22.6347 16.9828 22.7182 16.8999 22.7182 16.7335V13.2471C22.7171 13.0818 22.6341 12.9983 22.4683 12.9983Z" fill="#3F3FFF"></path></svg>