<svg width="100%" height="100%" viewBox="0 0 32 32" fill="none" xmlns="http://www.w3.org/2000/svg">
<g>
  <path d="M14.4747 10.6074C10.1473 10.6074 6.63916 14.1156 6.63916 18.443C6.63916 22.7706 10.1473 26.2786 14.4747 26.2786C18.8022 26.2786 22.3103 22.7706 22.3103 18.443C22.3103 14.1156 18.8022 10.6074 14.4747 10.6074ZM14.4747 15.0226C16.3608 15.0226 17.8954 16.5569 17.8954 18.443C17.8954 20.3291 16.3608 21.8635 14.4747 21.8635C12.5885 21.8635 11.0543 20.3291 11.0543 18.443C11.0543 16.5569 12.5885 15.0226 14.4747 15.0226Z" fill="#04E532"/>
  <path d="M25.1752 8.08061C25.1752 9.70697 23.8568 11.0254 22.2303 11.0254C20.6039 11.0254 19.2856 9.70697 19.2856 8.08061C19.2856 6.45443 20.6039 5.13574 22.2303 5.13574C23.8568 5.13574 25.1752 6.45443 25.1752 8.08061Z" fill="#04E532"/>
  </g>
  </svg>