<svg width="1em" height="1em" viewBox="0 0 32 32" fill="none" xmlns="http://www.w3.org/2000/svg"><mask id="mask0_8103_8805" maskUnits="userSpaceOnUse" x="5" y="5" width="22" height="22" style="mask-type: luminance;"><path d="M26.8801 5.12012H5.12012V26.8801H26.8801V5.12012Z" fill="white"></path></mask><g mask="url(#mask0_8103_8805)"><path fill-rule="evenodd" clip-rule="evenodd" d="M5.12012 16C5.12012 10.1817 9.99416 5.45996 16.0001 5.45996C22.0061 5.45996 26.8801 10.1817 26.8801 16C26.8801 21.8182 22.0061 26.54 16.0001 26.54C9.99416 26.54 5.12012 21.8182 5.12012 16ZM22.3921 14.7758C22.5895 14.8864 22.7299 14.9416 22.958 14.9416C23.4933 14.9416 23.9758 14.5293 23.9758 13.9513C23.9758 13.4456 23.7521 13.1821 23.4099 12.9908C20.9575 11.6054 17.6014 10.9593 14.3988 10.9593C12.5167 10.9593 10.7882 11.1676 9.24398 11.6054C8.8491 11.7159 8.48059 12.0431 8.48059 12.6211C8.48059 13.1863 8.92372 13.6241 9.50279 13.6241C9.67833 13.6241 9.84475 13.5768 9.98677 13.5365C10.0151 13.5284 10.0425 13.5206 10.0687 13.5136C13.6837 12.5361 19.2685 12.9696 22.3921 14.7758ZM21.1167 18.032C21.2553 18.1049 21.398 18.1801 21.598 18.1801C22.0762 18.1801 22.4447 17.8103 22.4491 17.3513C22.4491 16.9816 22.3087 16.7181 21.9534 16.5141C19.7862 15.2646 17.0355 14.5803 14.1882 14.5803C12.3632 14.5803 11.1173 14.8269 9.89761 15.1584C9.44577 15.2816 9.21761 15.5833 9.21761 16.0381C9.21761 16.4928 9.59931 16.8626 10.0687 16.8626C10.2139 16.8626 10.314 16.8327 10.4405 16.795C10.486 16.7814 10.535 16.7667 10.5908 16.7521C14.2277 15.7959 18.3165 16.4291 21.0584 18.0016C21.0779 18.0115 21.0973 18.0217 21.1167 18.032ZM19.9485 20.8151C20.1196 20.9129 20.2336 20.9681 20.4179 20.9681C20.7733 20.9681 21.0847 20.7003 21.0847 20.3136C21.0847 19.9268 20.9268 19.7781 20.6592 19.6123C17.5268 17.7976 13.8548 17.7296 10.2618 18.4989C9.93275 18.5668 9.6651 18.7751 9.6651 19.2128C9.6651 19.5571 9.93275 19.8843 10.3583 19.8843C10.4582 19.8843 10.6178 19.8424 10.7645 19.8038C10.8046 19.7933 10.8437 19.783 10.8803 19.7739C14.0259 19.1491 17.211 19.2171 19.9485 20.8151Z" fill="#1ED760"></path></g></svg>